<?xml version="1.0" encoding="utf-8"?>
<!-- Generator: Adobe Illustrator 22.1.0, SVG Export Plug-In . SVG Version: 6.00 Build 0)  -->
<svg version="1.1" xmlns="http://www.w3.org/2000/svg" xmlns:xlink="http://www.w3.org/1999/xlink" x="0px" y="0px"
	 viewBox="0 0 1024 1024" style="enable-background:new 0 0 1024 1024;" xml:space="preserve">
<style type="text/css">
	.st0{stroke:#000000;stroke-width:0.75;stroke-miterlimit:10;}
	.st1{fill:none;stroke:#000000;stroke-width:24;stroke-miterlimit:10;}
</style>
<g id="Слой_2">
</g>
<g id="Слой_1">
	<path id="XMLID_1_" class="st0" d="M444.3,521.4L444.3,521.4c-6.4,1.8-13-2-14.8-8.4l-62.2-225.6c-1.8-6.4,2-13,8.4-14.8h0
		c6.4-1.8,13,2,14.8,8.4l62.2,225.6C454.4,513,450.7,519.6,444.3,521.4z"/>
	<path id="XMLID_2_" class="st0" d="M440.7,521.4L440.7,521.4c6.4,1.8,13-2,14.8-8.4l62.2-225.6c1.8-6.4-2-13-8.4-14.8h0
		c-6.4-1.8-13,2-14.8,8.4l-62.2,225.6C430.6,513,434.3,519.6,440.7,521.4z"/>
	<path id="XMLID_4_" class="st0" d="M509.7,381.6L509.7,381.6c6.4-1.8,13,2,14.8,8.4l62.2,225.6c1.8,6.4-2,13-8.4,14.8l0,0
		c-6.4,1.8-13-2-14.8-8.4l-62.2-225.6C499.6,390,503.3,383.4,509.7,381.6z"/>
	<path id="XMLID_3_" class="st0" d="M513.3,381.6L513.3,381.6c-6.4-1.8-13,2-14.8,8.4l-62.2,225.6c-1.8,6.4,2,13,8.4,14.8h0
		c6.4,1.8,13-2,14.8-8.4l62.2-225.6C523.4,390,519.7,383.4,513.3,381.6z"/>
	<path id="XMLID_5_" class="st0" d="M605.5,450.5L605.5,450.5c6.6,0,12,5.4,12,12v234c0,6.6-5.4,12-12,12l0,0c-6.6,0-12-5.4-12-12
		v-234C593.5,455.9,598.9,450.5,605.5,450.5z"/>
	<path class="st1" d="M676.5,532.5c0-39-31.5-70.5-70.5-70.5"/>
	<path class="st1" d="M606,600.5c39,0,70.5-31.5,70.5-70.5"/>
	<path id="XMLID_6_" class="st0" d="M707.5,450.5L707.5,450.5c6.6,0,12,5.4,12,12v234c0,6.6-5.4,12-12,12l0,0c-6.6,0-12-5.4-12-12
		v-234C695.5,455.9,700.9,450.5,707.5,450.5z"/>
	<path class="st1" d="M778.5,532.5c0-39-31.5-70.5-70.5-70.5"/>
	<path class="st1" d="M708,600.5c39,0,70.5-31.5,70.5-70.5"/>
	<path id="XMLID_7_" class="st0" d="M556.5,524.5L556.5,524.5c0,6.6-5.4,12-12,12h-66c-6.6,0-12-5.4-12-12l0,0c0-6.6,5.4-12,12-12
		h66C551.1,512.5,556.5,517.9,556.5,524.5z"/>
	<circle class="st1" cx="606" cy="377" r="51"/>
	<path id="XMLID_8_" class="st0" d="M707.5,312.5L707.5,312.5c6.6,0,12,5.4,12,12v105c0,6.6-5.4,12-12,12l0,0c-6.6,0-12-5.4-12-12
		v-105C695.5,317.9,700.9,312.5,707.5,312.5z"/>
</g>
</svg>
